<?xml version="1.0" encoding="UTF-8" standalone="no"?>
<!-- Uploaded to: SVG Repo, www.svgrepo.com, Generator: SVG Repo Mixer Tools -->

<svg
   fill="#000000"
   width="624.95117"
   height="624.95117"
   viewBox="0 0 24.998047 24.998047"
   version="1.1"
   id="svg12"
   sodipodi:docname="jedi.svg"
   xmlns:inkscape="http://www.inkscape.org/namespaces/inkscape"
   xmlns:sodipodi="http://sodipodi.sourceforge.net/DTD/sodipodi-0.dtd"
   xmlns="http://www.w3.org/2000/svg"
   xmlns:svg="http://www.w3.org/2000/svg">
  <defs
     id="defs16" />
  <sodipodi:namedview
     id="namedview14"
     pagecolor="#ffffff"
     bordercolor="#000000"
     borderopacity="0.25"
     inkscape:showpageshadow="2"
     inkscape:pageopacity="0.0"
     inkscape:pagecheckerboard="0"
     inkscape:deskcolor="#d1d1d1"
     showgrid="false" />
  <path
     d="m 12.484375,0 c 0,0 -0.312406,11.949516 -0.441406,16.853516 l -1.751953,-2.560547 1.126953,3.095703 -3.4921881,0.507812 3.4921881,0.507813 -1.34961,2.644531 1.923829,-2.019531 c -0.1,3.838 -0.123047,4.78125 -0.123047,4.78125 0,0 -8.6131722,-3.999891 -3.8261721,-12.837891 0,0 -5.9695001,-6.5906248 -0.5625,-10.6406248 0,0 -9.2330001,5.5754376 -3.3750001,15.1484378 0,0 -4.84354692,-4.730719 -2.3105469,-9.511719 0,0 -4.3900625,6.191906 0.9609375,13.003906 0,0 -1.4618594,-0.896984 -2.755859425,-4.333984 0,0 0.941765605,10.226375 12.384766025000001,10.359375 h 0.228515 c 11.436,-0.132 12.384766,-10.357422 12.384766,-10.357422 -1.317,3.431 -2.783203,4.333984 -2.783203,4.333984 5.35,-6.812 0.958984,-13.0039059 0.958984,-13.0039059 2.533,4.7869999 -2.310547,9.5117189 -2.310547,9.5117189 5.858,-9.5680001 -3.375,-15.1464845 -3.375,-15.1464845 5.406,4.056 -0.5625,10.6386715 -0.5625,10.6386715 4.787,8.837 -3.826172,12.837891 -3.826172,12.837891 0,0 -0.02205,-0.94325 -0.123046,-4.78125 0.24,0.251 1.923828,2.019531 1.923828,2.019531 l -1.34961,-2.644531 3.494141,-0.507812 -3.494141,-0.507813 1.126954,-3.095703 -1.751954,2.560547 C 12.801781,11.961469 12.490375,0.1 12.484375,0 Z"
     id="path10"
     style="opacity:0.5;fill:#ffffff" />
</svg>
